<?xml version="1.0" standalone="no"?>
<!DOCTYPE svg PUBLIC "-//W3C//DTD SVG 20010904//EN"
 "http://www.w3.org/TR/2001/REC-SVG-20010904/DTD/svg10.dtd">
<svg version="1.0" xmlns="http://www.w3.org/2000/svg"
 width="200.000000pt" height="200.000000pt" viewBox="0 0 200.000000 200.000000"
 preserveAspectRatio="xMidYMid meet">

<g transform="translate(0.000000,200.000000) scale(0.100000,-0.100000)"
fill="#000000" stroke="none">
<path d="M533 1740 c-1 -19 -3 -46 -4 -58 -1 -17 -10 -27 -31 -34 -36 -13 -20
-28 30 -28 35 0 37 -5 22 -44 -5 -14 -6 -26 -1 -26 5 0 14 -13 20 -30 5 -16 8
-30 5 -30 -3 0 2 -7 11 -17 11 -11 15 -26 11 -44 -3 -16 -1 -31 5 -34 5 -4 7
-15 4 -26 -4 -13 -1 -21 10 -25 12 -5 15 -14 11 -35 -3 -16 0 -32 8 -38 8 -7
11 -22 8 -38 -4 -21 -2 -25 12 -20 12 5 16 1 17 -16 0 -12 2 -30 4 -40 2 -12
-5 -19 -23 -23 -42 -10 -44 -14 -20 -35 l23 -20 -45 3 c-35 2 -45 -1 -48 -14
-2 -13 2 -15 19 -11 15 4 20 3 15 -5 -4 -7 -14 -12 -21 -12 -9 0 -12 -6 -9
-15 4 -10 -3 -18 -22 -25 -16 -6 -58 -40 -94 -75 -36 -34 -81 -78 -100 -95
-46 -43 -28 -30 110 75 63 49 121 93 128 98 6 5 12 7 12 4 0 -7 -196 -177
-276 -239 l-72 -55 112 -2 c61 0 141 -4 179 -7 l67 -7 1 -66 c2 -107 14 -129
23 -41 11 111 5 105 90 105 60 1 73 -2 64 -12 -11 -14 -4 -43 11 -43 5 0 11
10 13 23 3 20 5 18 25 -15 12 -20 19 -45 16 -56 -2 -11 6 -41 20 -68 13 -27
35 -82 48 -121 41 -130 31 -69 -16 97 -26 89 -44 164 -42 167 7 7 119 -339
113 -352 -4 -11 19 -37 27 -29 3 3 3 -18 1 -45 l-3 -51 29 22 c17 12 30 28 30
36 0 11 9 13 38 8 l37 -6 -39 33 -38 34 24 19 c13 10 24 28 25 39 2 54 12 97
27 114 9 9 16 25 16 34 0 9 4 18 9 21 5 3 7 15 4 26 -3 12 2 29 12 40 10 11
14 26 10 39 -5 17 -1 20 32 23 30 2 38 8 43 28 4 16 12 23 21 20 8 -2 55 -4
104 -5 87 0 91 -1 107 -27 19 -30 37 -35 56 -16 7 7 41 11 90 10 61 -2 82 1
92 13 12 14 15 14 31 -1 18 -16 19 -16 19 4 0 15 6 22 20 22 10 0 30 5 43 11
23 11 24 12 9 30 -9 11 -24 19 -33 19 -18 0 -29 19 -29 53 -1 20 -2 20 -13 5
-12 -15 -22 -8 -103 64 -49 45 -102 101 -117 126 -24 37 -32 43 -52 38 -19 -5
-28 0 -42 20 -9 14 -34 37 -55 50 -24 16 -38 32 -38 45 0 15 -5 19 -15 15 -25
-9 -17 10 10 22 16 8 25 20 25 34 -1 21 -2 21 -11 6 -5 -10 -14 -18 -20 -18
-13 0 0 69 17 95 8 11 14 35 14 53 0 19 9 70 21 114 11 44 18 82 16 85 -3 2
-8 -9 -11 -24 -17 -69 -88 -284 -93 -280 -6 6 62 262 79 300 7 15 18 25 25 23
17 -7 24 6 11 21 -7 9 -8 17 -2 21 5 4 19 22 32 39 l22 33 -27 -3 c-16 -2 -37
-7 -47 -12 -15 -6 -25 -2 -44 21 -13 16 -22 21 -19 12 3 -9 9 -33 13 -52 6
-37 7 -36 -38 -40 -7 -1 -28 -19 -48 -40 -19 -21 -50 -45 -67 -53 -18 -7 -33
-18 -33 -23 0 -6 -7 -10 -15 -10 -9 0 -20 -11 -25 -25 -7 -18 -17 -25 -35 -25
-16 0 -25 -6 -25 -16 0 -10 -6 -14 -14 -11 -7 3 -24 -1 -36 -10 -16 -11 -25
-12 -33 -4 -6 6 -7 11 -3 11 5 0 3 7 -4 15 -7 8 -16 12 -21 10 -4 -3 -13 4
-19 15 -6 11 -17 20 -25 20 -8 0 -25 12 -39 26 -19 21 -23 34 -19 60 5 30 3
34 -16 34 -31 0 -59 17 -97 56 -21 23 -41 34 -59 34 -18 0 -28 6 -32 19 -4 16
-9 18 -22 9 -12 -7 -27 -4 -61 14 l-45 24 -2 -36z m118 -119 c-1 -2 11 -10 28
-17 17 -7 31 -18 31 -24 0 -5 7 -10 15 -10 8 0 24 -13 37 -30 12 -16 28 -30
35 -30 7 0 13 -7 13 -15 0 -9 9 -15 25 -15 18 0 25 -5 25 -19 0 -12 11 -25 28
-33 18 -9 28 -22 30 -41 4 -35 -7 -34 -44 4 -52 55 -67 53 -28 -3 21 -29 31
-47 24 -40 -24 21 -30 14 -31 -35 l-1 -48 -11 35 c-11 35 -11 35 -17 -29 -3
-39 -10 -66 -17 -69 -7 -2 -13 3 -13 12 0 22 -17 20 -30 -4 -14 -27 -32 -16
-24 15 3 12 1 26 -5 29 -6 4 -11 17 -11 30 0 12 -5 27 -11 33 -19 19 -18 67 3
96 l20 28 -26 28 c-15 16 -26 39 -26 54 0 37 -26 96 -45 103 -12 5 -13 9 -4
21 11 12 14 12 23 -4 5 -10 9 -20 7 -22z m149 -46 c0 -8 -4 -15 -10 -15 -5 0
-10 7 -10 15 0 8 5 15 10 15 6 0 10 -7 10 -15z m460 -55 c0 -5 -7 -10 -15 -10
-8 0 -15 5 -15 10 0 6 7 10 15 10 8 0 15 -4 15 -10z m100 0 c0 -20 -29 -80
-56 -115 -23 -31 -25 -39 -15 -61 9 -21 8 -29 -11 -54 l-21 -29 -29 20 c-15
11 -28 28 -28 37 0 15 -2 15 -10 2 -8 -12 -10 -11 -10 7 0 12 -5 25 -11 29 -6
3 -9 17 -6 31 3 17 1 23 -9 19 -11 -4 -11 -2 -1 14 6 11 20 20 29 20 10 0 18
5 18 10 0 7 6 7 19 0 32 -17 61 -12 61 9 0 11 14 31 31 45 32 27 49 33 49 16z
m-716 -75 c-4 -8 -10 -12 -15 -9 -14 8 -10 24 6 24 9 0 12 -6 9 -15z m320 -51
c3 -8 2 -12 -4 -9 -6 3 -10 10 -10 16 0 14 7 11 14 -7z m166 -8 c0 -2 -7 -7
-16 -10 -8 -3 -12 -2 -9 4 6 10 25 14 25 6z m-19 -66 c31 -25 12 -26 -21 0
-14 11 -20 20 -14 20 7 0 22 -9 35 -20z m-179 -52 c-12 -12 -24 -19 -27 -16
-4 3 4 15 16 27 29 27 39 17 11 -11z m63 -17 c3 -5 1 -12 -5 -16 -5 -3 -10 1
-10 9 0 18 6 21 15 7z m75 -32 c0 -11 8 -68 17 -127 17 -107 17 -107 24 -57 4
28 8 73 10 100 2 40 4 31 13 -50 l12 -100 6 95 c6 104 13 130 34 130 17 0 19
-17 2 -22 -17 -6 0 -28 22 -28 28 0 33 -17 7 -24 l-22 -6 21 -18 c27 -23 42
-92 20 -92 -8 0 -30 -14 -48 -31 -18 -18 -25 -29 -15 -26 9 4 17 2 17 -3 0 -5
-11 -12 -25 -16 -14 -3 -25 -12 -25 -20 0 -8 -10 -14 -22 -14 -20 0 -20 -1 -4
-19 14 -15 15 -24 7 -38 -8 -14 -11 -15 -11 -3 0 9 -12 2 -31 -20 l-30 -35 16
35 c17 35 17 35 -30 -13 -50 -50 -77 -61 -68 -27 7 27 -9 25 -45 -5 -24 -20
-32 -22 -41 -12 -8 10 -7 17 2 26 9 9 9 14 -2 21 -12 7 -12 11 -2 24 12 14 10
16 -13 16 -23 0 -26 3 -21 20 3 10 -1 33 -10 51 -11 20 -15 43 -11 62 5 27 4
28 -11 16 -15 -13 -15 -12 -4 9 7 13 10 30 7 38 -3 7 5 20 17 29 21 15 20 15
-16 15 -20 0 -37 4 -37 10 0 5 7 7 16 3 9 -3 28 6 47 24 18 17 41 33 52 37 16
6 17 9 5 17 -11 8 -7 9 17 6 18 -2 35 1 37 7 3 7 7 8 13 1 11 -14 33 -17 33
-5 0 9 47 39 63 40 4 0 7 -9 7 -21z m285 -143 c2 -11 6 -32 7 -46 2 -15 10
-26 21 -28 16 -3 17 -1 7 18 -16 30 -7 34 28 12 l31 -18 -56 -85 -56 -84 62
68 c35 37 67 67 72 67 5 0 65 -40 134 -90 69 -49 125 -88 125 -86 0 2 -64 56
-142 119 -79 62 -150 122 -158 133 -18 22 99 -59 233 -162 91 -70 98 -78 92
-102 -4 -15 -8 -28 -10 -30 -5 -6 -55 22 -55 31 0 5 -7 4 -14 -3 -8 -6 -28
-10 -43 -9 -15 2 -34 0 -41 -5 -7 -4 -28 -2 -47 4 -19 6 -40 8 -46 4 -6 -3
-15 -1 -19 6 -6 9 -12 9 -29 -1 -17 -11 -25 -11 -41 -1 -15 9 -26 10 -40 2
-14 -8 -26 -8 -40 0 -16 9 -20 8 -20 -5 0 -22 -28 -18 -35 6 -10 29 -2 32 52
21 26 -6 49 -9 50 -8 2 2 -14 15 -34 29 -21 15 -32 27 -25 27 8 0 2 15 -15 38
-18 25 -21 32 -8 21 41 -33 49 -32 24 2 -14 18 -31 44 -38 57 -14 27 -5 48 14
32 22 -18 28 6 10 41 -15 29 -15 32 1 44 23 16 43 9 49 -19z m-662 -93 c-7 -2
-19 -2 -25 0 -7 3 -2 5 12 5 14 0 19 -2 13 -5z m40 -43 c31 -15 37 -41 7 -33
-39 10 -19 -30 23 -46 24 -9 26 -14 17 -30 -7 -13 -7 -22 0 -26 6 -4 8 -11 5
-16 -11 -16 -42 -9 -57 13 -10 15 -20 19 -32 15 -17 -7 -16 -9 5 -26 l22 -18
-42 -7 c-25 -4 -50 -2 -62 5 -12 6 -32 8 -47 3 -15 -4 -74 -10 -132 -14 l-105
-7 130 -2 c241 -5 257 -16 35 -23 -112 -4 -206 -5 -208 -4 -1 2 47 40 108 85
60 44 110 85 110 90 0 11 63 52 105 67 31 12 41 9 118 -26z m478 -77 c-9 -16
-10 -16 -11 -1 0 9 3 25 7 35 7 16 8 17 11 1 2 -10 -1 -25 -7 -35z m-73 -120
c-10 -2 -26 -2 -35 0 -10 3 -2 5 17 5 19 0 27 -2 18 -5z m427 -2 c10 -17 -12
-21 -25 -6 -10 12 -10 15 3 15 9 0 18 -4 22 -9z m-522 -58 c19 -17 20 -17 14
0 -6 16 -5 16 17 2 12 -8 26 -12 29 -8 12 11 7 -52 -5 -80 -7 -15 -19 -27 -27
-27 -11 0 -10 -4 3 -19 16 -18 15 -21 -23 -64 -48 -56 -66 -104 -52 -141 7
-16 7 -26 1 -26 -5 0 -12 10 -15 23 -2 12 -16 73 -30 135 -13 62 -29 121 -35
131 -5 11 -10 33 -10 48 0 27 3 29 42 32 23 1 44 4 47 7 9 8 25 4 44 -13z m49
-195 c-7 -7 -12 -8 -12 -2 0 14 12 26 19 19 2 -3 -1 -11 -7 -17z"/>
<path d="M269 763 l-24 -28 28 24 c25 23 32 31 24 31 -2 0 -14 -12 -28 -27z"/>
</g>
</svg>
